<svg width="20" height="20" viewBox="0 0 20 20" fill="none" xmlns="http://www.w3.org/2000/svg">
<path fill-rule="evenodd" clip-rule="evenodd" d="M10.053 0H9.94698C7.79907 0 6.11628 5.54462e-08 4.80279 0.176744C3.45954 0.357209 2.39907 0.734884 1.56651 1.56651C0.733954 2.39907 0.357209 3.45953 0.176744 4.80372C5.54462e-08 6.11628 0 7.79907 0 9.94698V10.053C0 12.2009 5.54462e-08 13.8837 0.176744 15.1972C0.357209 16.5405 0.734884 17.6009 1.56651 18.4335C2.39907 19.266 3.45953 19.6428 4.80372 19.8233C6.11628 20 7.79907 20 9.94698 20H10.053C12.2009 20 13.8837 20 15.1972 19.8233C16.5405 19.6428 17.6009 19.2651 18.4335 18.4335C19.266 17.6009 19.6428 16.5405 19.8233 15.1963C20 13.8837 20 12.2009 20 10.053V9.94698C20 7.79907 20 6.11628 19.8233 4.80279C19.6428 3.45954 19.2651 2.39907 18.4335 1.56651C17.6009 0.733954 16.5405 0.357209 15.1963 0.176744C13.8837 5.54462e-08 12.2009 0 10.053 0ZM2.55349 2.55349C3.08372 2.02326 3.8 1.71907 4.98977 1.55907C6.19907 1.39721 7.78791 1.39535 10 1.39535C12.2121 1.39535 13.8009 1.39721 15.0102 1.55907C16.2 1.71907 16.9172 2.02419 17.4474 2.55349C17.9767 3.08372 18.2809 3.8 18.4409 4.98977C18.6028 6.19907 18.6047 7.78791 18.6047 10C18.6047 12.2121 18.6028 13.8009 18.4409 15.0102C18.2809 16.2 17.9758 16.9172 17.4465 17.4474C16.9163 17.9767 16.2 18.2809 15.0102 18.4409C13.8009 18.6028 12.2121 18.6047 10 18.6047C7.78791 18.6047 6.19907 18.6028 4.98977 18.4409C3.8 18.2809 3.08279 17.9758 2.55256 17.4465C2.02326 16.9163 1.71907 16.2 1.55907 15.0102C1.39721 13.8009 1.39535 12.2121 1.39535 10C1.39535 7.78791 1.39721 6.19907 1.55907 4.98977C1.71907 3.8 2.02419 3.08372 2.55349 2.55349Z" fill="black"/>
</svg>
